ScienceGothic-Blk.ufo
<glyph name="parenleft" format="2">
  <advance width="818.5"/>
  <unicode hex="0028"/>
  <outline>
    <contour>
      <point x="809.5" y="-256" type="line"/>
      <point x="494.5" y="-256" type="line"/>
      <point x="411.5" y="-182"/>
      <point x="273.5" y="17"/>
      <point x="173.5" y="246"/>
      <point x="118.5" y="496"/>
      <point x="118.5" y="622" type="qcurve" smooth="yes"/>
      <point x="118.5" y="748"/>
      <point x="173.5" y="998"/>
      <point x="273.5" y="1228"/>
      <point x="411.5" y="1426"/>
      <point x="494.5" y="1500" type="qcurve"/>
      <point x="809.5" y="1500" type="line"/>
      <point x="770.5" y="1449"/>
      <point x="701.5" y="1325"/>
      <point x="643.5" y="1185"/>
      <point x="598.5" y="1032"/>
      <point x="567.5" y="870"/>
      <point x="550.5" y="705"/>
      <point x="550.5" y="622" type="qcurve" smooth="yes"/>
      <point x="550.5" y="540"/>
      <point x="567.5" y="374"/>
      <point x="598.5" y="212"/>
      <point x="643.5" y="59"/>
      <point x="701.5" y="-81"/>
      <point x="770.5" y="-205"/>
      <point x="809.5" y="-256" type="qcurve"/>
    </contour>
  </outline>
</glyph>
<glyph name="two" format="2">
  <advance width="1809"/>
  <unicode hex="0032"/>
  <outline>
    <contour>
      <point x="180" y="-14" type="line"/>
      <point x="180" y="295" type="line" smooth="yes"/>
      <point x="180" y="380"/>
      <point x="228" y="516"/>
      <point x="328" y="629"/>
      <point x="483" y="724"/>
      <point x="591" y="767" type="qcurve" smooth="yes"/>
      <point x="1057" y="954" type="line" smooth="yes"/>
      <point x="1062" y="956"/>
      <point x="1070" y="961"/>
      <point x="1076" y="967"/>
      <point x="1079" y="973"/>
      <point x="1079" y="977" type="qcurve" smooth="yes"/>
      <point x="1079" y="1028" type="line"/>
      <point x="1079" y="1028"/>
      <point x="1079" y="1028"/>
      <point x="1079" y="1028" type="qcurve"/>
      <point x="745" y="1028" type="line"/>
      <point x="745" y="1028"/>
      <point x="745" y="1028"/>
      <point x="745" y="1028" type="qcurve"/>
      <point x="745" y="912" type="line"/>
      <point x="199" y="1008" type="line"/>
      <point x="199" y="1086" type="line" smooth="yes"/>
      <point x="199" y="1189"/>
      <point x="259" y="1317"/>
      <point x="367" y="1389"/>
      <point x="518" y="1414"/>
      <point x="609" y="1414" type="qcurve" smooth="yes"/>
      <point x="1209" y="1414" type="line" smooth="yes"/>
      <point x="1301" y="1414"/>
      <point x="1453" y="1388"/>
      <point x="1564" y="1315"/>
      <point x="1625" y="1186"/>
      <point x="1625" y="1082" type="qcurve" smooth="yes"/>
      <point x="1625" y="1010" type="line" smooth="yes"/>
      <point x="1625" y="926"/>
      <point x="1589" y="806"/>
      <point x="1496" y="712"/>
      <point x="1339" y="632"/>
      <point x="1217" y="586" type="qcurve" smooth="yes"/>
      <point x="770" y="417" type="line" smooth="yes"/>
      <point x="756" y="412"/>
      <point x="737" y="403"/>
      <point x="726" y="393"/>
      <point x="722" y="382"/>
      <point x="722" y="374" type="qcurve"/>
      <point x="722" y="372" type="line"/>
      <point x="1119" y="372" type="line"/>
      <point x="1119" y="372"/>
      <point x="1119" y="372"/>
      <point x="1119" y="372" type="qcurve"/>
      <point x="1119" y="478" type="line"/>
      <point x="1665" y="382" type="line"/>
      <point x="1665" y="328" type="line" smooth="yes"/>
      <point x="1665" y="222"/>
      <point x="1608" y="89"/>
      <point x="1502" y="14"/>
      <point x="1350" y="-14"/>
      <point x="1255" y="-14" type="qcurve" smooth="yes"/>
    </contour>
  </outline>
</glyph>
<glyph name="nine" format="2">
  <advance width="1832"/>
  <unicode hex="0039"/>
  <outline>
    <contour>
      <point x="910" y="1416" type="line"/>
      <point x="757" y="1416"/>
      <point x="521" y="1405"/>
      <point x="347" y="1370"/>
      <point x="229" y="1303"/>
      <point x="157" y="1190"/>
      <point x="126" y="1024"/>
      <point x="126" y="908" type="qcurve" smooth="yes"/>
      <point x="126" y="805"/>
      <point x="173" y="661"/>
      <point x="264" y="566"/>
      <point x="399" y="513"/>
      <point x="577" y="486"/>
      <point x="797" y="480"/>
      <point x="926" y="480" type="qcurve" smooth="yes"/>
      <point x="1012" y="480"/>
      <point x="1192" y="504"/>
      <point x="1357" y="540"/>
      <point x="1495" y="584"/>
      <point x="1538" y="604" type="qcurve"/>
      <point x="1538" y="914" type="line"/>
      <point x="1482" y="901"/>
      <point x="1328" y="878"/>
      <point x="1164" y="861"/>
      <point x="1006" y="852"/>
      <point x="944" y="852" type="qcurve" smooth="yes"/>
      <point x="893" y="852"/>
      <point x="816" y="855"/>
      <point x="761" y="863"/>
      <point x="726" y="876"/>
      <point x="706" y="897"/>
      <point x="698" y="928"/>
      <point x="698" y="948" type="qcurve" smooth="yes"/>
      <point x="698" y="966"/>
      <point x="704" y="995"/>
      <point x="719" y="1019"/>
      <point x="747" y="1035"/>
      <point x="791" y="1047"/>
      <point x="854" y="1052"/>
      <point x="897" y="1052" type="qcurve" smooth="yes"/>
      <point x="941" y="1052"/>
      <point x="1007" y="1050"/>
      <point x="1056" y="1039"/>
      <point x="1088" y="1019"/>
      <point x="1108" y="982"/>
      <point x="1116" y="926"/>
      <point x="1116" y="886" type="qcurve" smooth="yes"/>
      <point x="1116" y="770"/>
      <point x="1094" y="596"/>
      <point x="1040" y="471"/>
      <point x="953" y="389"/>
      <point x="821" y="341"/>
      <point x="643" y="322"/>
      <point x="526" y="322" type="qcurve" smooth="yes"/>
      <point x="515" y="322"/>
      <point x="483" y="323"/>
      <point x="451" y="326"/>
      <point x="422" y="330"/>
      <point x="414" y="332" type="qcurve"/>
      <point x="606" y="-8" type="line"/>
      <point x="614" y="-10"/>
      <point x="640" y="-12"/>
      <point x="676" y="-15"/>
      <point x="719" y="-16"/>
      <point x="744" y="-16" type="qcurve" smooth="yes"/>
      <point x="899" y="-16"/>
      <point x="1159" y="31"/>
      <point x="1369" y="126"/>
      <point x="1528" y="271"/>
      <point x="1634" y="469"/>
      <point x="1688" y="721"/>
      <point x="1688" y="874" type="qcurve" smooth="yes"/>
      <point x="1688" y="992"/>
      <point x="1657" y="1164"/>
      <point x="1585" y="1285"/>
      <point x="1468" y="1359"/>
      <point x="1295" y="1401"/>
      <point x="1062" y="1416"/>
      <point x="910" y="1416" type="qcurve"/>
    </contour>
  </outline>
</glyph>
<glyph name="greater" format="2">
  <advance width="1448"/>
  <unicode hex="003E"/>
  <outline>
    <contour>
      <point x="117" y="1168" type="line"/>
      <point x="117" y="860" type="line"/>
      <point x="868" y="582" type="line"/>
      <point x="117" y="304" type="line"/>
      <point x="117" y="0" type="line"/>
      <point x="1331" y="449" type="line"/>
      <point x="1331" y="719" type="line"/>
      <point x="117" y="1168" type="line"/>
    </contour>
  </outline>
</glyph>
<glyph name="question" format="2">
  <advance width="1529"/>
  <unicode hex="003F"/>
  <outline>
    <contour>
      <point x="473" y="462" type="line"/>
      <point x="473" y="658" type="line" smooth="yes"/>
      <point x="473" y="702"/>
      <point x="503" y="785"/>
      <point x="561" y="850"/>
      <point x="650" y="890"/>
      <point x="708" y="890" type="qcurve" smooth="yes"/>
      <point x="880" y="890" type="line"/>
      <point x="880" y="890"/>
      <point x="880" y="890"/>
      <point x="880" y="890"/>
      <point x="880" y="890"/>
      <point x="880" y="890" type="qcurve"/>
      <point x="880" y="1028" type="line"/>
      <point x="880" y="1028"/>
      <point x="880" y="1028"/>
      <point x="880" y="1028"/>
      <point x="880" y="1028"/>
      <point x="880" y="1028" type="qcurve"/>
      <point x="595" y="1028" type="line"/>
      <point x="595" y="1028"/>
      <point x="595" y="1028"/>
      <point x="595" y="1028"/>
      <point x="595" y="1028"/>
      <point x="595" y="1028" type="qcurve"/>
      <point x="595" y="935" type="line"/>
      <point x="90" y="1008" type="line"/>
      <point x="90" y="1117" type="line" smooth="yes"/>
      <point x="90" y="1196"/>
      <point x="133" y="1309"/>
      <point x="225" y="1381"/>
      <point x="369" y="1414"/>
      <point x="471" y="1414" type="qcurve" smooth="yes"/>
      <point x="1007" y="1414" type="line" smooth="yes"/>
      <point x="1109" y="1414"/>
      <point x="1252" y="1381"/>
      <point x="1343" y="1311"/>
      <point x="1385" y="1199"/>
      <point x="1385" y="1119" type="qcurve" smooth="yes"/>
      <point x="1385" y="822" type="line" smooth="yes"/>
      <point x="1385" y="763"/>
      <point x="1355" y="655"/>
      <point x="1289" y="573"/>
      <point x="1185" y="524"/>
      <point x="1111" y="524" type="qcurve" smooth="yes"/>
      <point x="948" y="524" type="line"/>
      <point x="948" y="524"/>
      <point x="948" y="524"/>
      <point x="948" y="524"/>
      <point x="948" y="524"/>
      <point x="948" y="524" type="qcurve"/>
      <point x="948" y="462" type="line"/>
    </contour>
    <contour>
      <point x="425" y="135" type="line"/>
      <point x="425" y="226" type="line" smooth="yes"/>
      <point x="425" y="270"/>
      <point x="435" y="324"/>
      <point x="466" y="354"/>
      <point x="521" y="364"/>
      <point x="566" y="364" type="qcurve" smooth="yes"/>
      <point x="853" y="364" type="line" smooth="yes"/>
      <point x="898" y="364"/>
      <point x="954" y="354"/>
      <point x="984" y="324"/>
      <point x="995" y="269"/>
      <point x="995" y="224" type="qcurve" smooth="yes"/>
      <point x="995" y="135" type="line" smooth="yes"/>
      <point x="995" y="90"/>
      <point x="985" y="35"/>
      <point x="954" y="4"/>
      <point x="899" y="-6"/>
      <point x="854" y="-6" type="qcurve" smooth="yes"/>
      <point x="566" y="-6" type="line" smooth="yes"/>
      <point x="521" y="-6"/>
      <point x="466" y="4"/>
      <point x="435" y="35"/>
      <point x="425" y="90"/>
      <point x="425" y="135" type="qcurve"/>
    </contour>
  </outline>
</glyph>
<glyph name="J" format="2">
  <advance width="1781" height="1448"/>
  <unicode hex="004A"/>
  <anchor x="1326" y="1564" name="top"/>
  <anchor x="842" y="-164" name="bottom"/>
  <outline>
    <contour>
      <point x="1612" y="1400" type="line"/>
      <point x="1040" y="1400" type="line"/>
      <point x="1040" y="450" type="line"/>
      <point x="1040" y="450"/>
      <point x="1040" y="450"/>
      <point x="1040" y="450"/>
      <point x="1040" y="450"/>
      <point x="1040" y="450" type="qcurve"/>
      <point x="672" y="450" type="line"/>
      <point x="672" y="450"/>
      <point x="672" y="450"/>
      <point x="672" y="450"/>
      <point x="672" y="450"/>
      <point x="672" y="450" type="qcurve"/>
      <point x="672" y="740" type="line"/>
      <point x="100" y="634" type="line"/>
      <point x="100" y="320" type="line" smooth="yes"/>
      <point x="100" y="220"/>
      <point x="159" y="90"/>
      <point x="267" y="15"/>
      <point x="420" y="-14"/>
      <point x="514" y="-14" type="qcurve" smooth="yes"/>
      <point x="1200" y="-14" type="line" smooth="yes"/>
      <point x="1295" y="-14"/>
      <point x="1447" y="15"/>
      <point x="1554" y="90"/>
      <point x="1612" y="220"/>
      <point x="1612" y="320" type="qcurve" smooth="yes"/>
    </contour>
  </outline>
</glyph>
<glyph name="U" format="2">
  <advance width="1932"/>
  <unicode hex="0055"/>
  <anchor x="966" y="1550" name="top"/>
  <anchor x="966" y="-150" name="bottom"/>
  <anchor x="1165" y="0" name="ogonek"/>
  <anchor x="1763" y="1400" name="horn"/>
  <outline>
    <contour>
      <point x="169" y="1400" type="line"/>
      <point x="741" y="1400" type="line"/>
      <point x="741" y="470" type="line"/>
      <point x="741" y="470"/>
      <point x="741" y="470"/>
      <point x="741" y="470"/>
      <point x="741" y="470"/>
      <point x="741" y="470" type="qcurve"/>
      <point x="1191" y="470" type="line"/>
      <point x="1191" y="470"/>
      <point x="1191" y="470"/>
      <point x="1191" y="470"/>
      <point x="1191" y="470"/>
      <point x="1191" y="470" type="qcurve"/>
      <point x="1191" y="1400" type="line"/>
      <point x="1763" y="1400" type="line"/>
      <point x="1763" y="329" type="line" smooth="yes"/>
      <point x="1763" y="223"/>
      <point x="1707" y="89"/>
      <point x="1600" y="14"/>
      <point x="1447" y="-14"/>
      <point x="1351" y="-14" type="qcurve" smooth="yes"/>
      <point x="579" y="-14" type="line" smooth="yes"/>
      <point x="484" y="-14"/>
      <point x="332" y="14"/>
      <point x="226" y="89"/>
      <point x="169" y="223"/>
      <point x="169" y="329" type="qcurve" smooth="yes"/>
    </contour>
  </outline>
</glyph>
<glyph name="bracketleft" format="2">
  <advance width="1006"/>
  <unicode hex="005B"/>
  <outline>
    <contour>
      <point x="180" y="-256" type="line"/>
      <point x="180" y="1448" type="line"/>
      <point x="952" y="1448" type="line"/>
      <point x="952" y="1098" type="line"/>
      <point x="620" y="1098" type="line"/>
      <point x="620" y="94" type="line"/>
      <point x="952" y="94" type="line"/>
      <point x="952" y="-256" type="line"/>
    </contour>
  </outline>
</glyph>
<glyph name="a" format="2">
  <advance width="1588" height="1448"/>
  <unicode hex="0061"/>
  <anchor x="814" y="1174" name="top"/>
  <anchor x="794" y="-150" name="bottom"/>
  <anchor x="1313" y="0" name="ogonek"/>
  <outline>
    <contour>
      <point x="401" y="-10" type="line" smooth="yes"/>
      <point x="340" y="-10"/>
      <point x="232" y="14"/>
      <point x="151" y="72"/>
      <point x="105" y="170"/>
      <point x="105" y="244" type="qcurve" smooth="yes"/>
      <point x="105" y="362" type="line" smooth="yes"/>
      <point x="105" y="435"/>
      <point x="151" y="529"/>
      <point x="232" y="584"/>
      <point x="340" y="606"/>
      <point x="401" y="606" type="qcurve" smooth="yes"/>
      <point x="941" y="606" type="line"/>
      <point x="941" y="712" type="line"/>
      <point x="941" y="712"/>
      <point x="941" y="712"/>
      <point x="941" y="712" type="qcurve"/>
      <point x="663" y="712" type="line"/>
      <point x="663" y="712"/>
      <point x="663" y="712"/>
      <point x="663" y="712" type="qcurve"/>
      <point x="663" y="660" type="line"/>
      <point x="139" y="755" type="line"/>
      <point x="139" y="774" type="line" smooth="yes"/>
      <point x="139" y="848"/>
      <point x="182" y="948"/>
      <point x="260" y="1008"/>
      <point x="369" y="1034"/>
      <point x="435" y="1034" type="qcurve" smooth="yes"/>
      <point x="1169" y="1034" type="line" smooth="yes"/>
      <point x="1235" y="1034"/>
      <point x="1344" y="1011"/>
      <point x="1422" y="949"/>
      <point x="1465" y="842"/>
      <point x="1465" y="758" type="qcurve" smooth="yes"/>
      <point x="1465" y="0" type="line"/>
      <point x="941" y="0" type="line"/>
      <point x="941" y="150" type="line"/>
      <point x="928" y="104"/>
      <point x="876" y="43"/>
      <point x="803" y="6"/>
      <point x="712" y="-10"/>
      <point x="659" y="-10" type="qcurve" smooth="yes"/>
    </contour>
    <contour>
      <point x="639" y="262" type="line"/>
      <point x="639" y="262"/>
      <point x="639" y="262"/>
      <point x="639" y="262" type="qcurve"/>
      <point x="941" y="262" type="line"/>
      <point x="941" y="370" type="line"/>
      <point x="639" y="370" type="line"/>
      <point x="639" y="370"/>
      <point x="639" y="370"/>
      <point x="639" y="370" type="qcurve"/>
    </contour>
  </outline>
  <guideline angle="90" color="1,0,0,1" x="941" y="0"/>
</glyph>
<glyph name="b" format="2">
  <advance width="1613" height="-1448"/>
  <unicode hex="0062"/>
  <anchor x="788" y="1598" name="top"/>
  <anchor x="788" y="-150" name="bottom"/>
  <outline>
    <contour>
      <point x="130" y="0" type="line"/>
      <point x="654" y="0" type="line"/>
      <point x="654" y="102" type="line"/>
      <point x="686" y="45"/>
      <point x="821" y="-10"/>
      <point x="928" y="-10" type="qcurve" smooth="yes"/>
      <point x="1192" y="-10" type="line" smooth="yes"/>
      <point x="1272" y="-10"/>
      <point x="1388" y="21"/>
      <point x="1463" y="85"/>
      <point x="1498" y="185"/>
      <point x="1498" y="254" type="qcurve" smooth="yes"/>
      <point x="1498" y="780" type="line" smooth="yes"/>
      <point x="1498" y="845"/>
      <point x="1462" y="941"/>
      <point x="1387" y="1004"/>
      <point x="1272" y="1034"/>
      <point x="1192" y="1034" type="qcurve" smooth="yes"/>
      <point x="928" y="1034" type="line" smooth="yes"/>
      <point x="821" y="1034"/>
      <point x="687" y="979"/>
      <point x="654" y="922" type="qcurve"/>
      <point x="654" y="1472" type="line"/>
      <point x="130" y="1472" type="line"/>
    </contour>
    <contour>
      <point x="654" y="372" type="line"/>
      <point x="654" y="652" type="line"/>
      <point x="974" y="652" type="line"/>
      <point x="974" y="652"/>
      <point x="974" y="652"/>
      <point x="974" y="652" type="qcurve"/>
      <point x="974" y="372" type="line"/>
      <point x="974" y="372"/>
      <point x="974" y="372"/>
      <point x="974" y="372" type="qcurve"/>
    </contour>
  </outline>
  <guideline angle="0" x="0" y="988"/>
  <guideline angle="0" x="0" y="42"/>
</glyph>
<glyph name="m" format="2">
  <advance width="2141" height="1448"/>
  <unicode hex="006D"/>
  <anchor x="1070.5" y="1184" name="top"/>
  <anchor x="1070.5" y="-150" name="bottom"/>
  <anchor x="30" y="518" name="left"/>
  <outline>
    <contour>
      <point x="130" y="0" type="line"/>
      <point x="654" y="0" type="line"/>
      <point x="654" y="602" type="line"/>
      <point x="812" y="602" type="line"/>
      <point x="812" y="0" type="line"/>
      <point x="1336" y="0" type="line"/>
      <point x="1336" y="602" type="line"/>
      <point x="1494" y="602" type="line"/>
      <point x="1494" y="602"/>
      <point x="1494" y="602"/>
      <point x="1494" y="602" type="qcurve"/>
      <point x="1494" y="0" type="line"/>
      <point x="2018" y="0" type="line"/>
      <point x="2018" y="734" type="line" smooth="yes"/>
      <point x="2018" y="812"/>
      <point x="1975" y="925"/>
      <point x="1885" y="999"/>
      <point x="1746" y="1034"/>
      <point x="1650" y="1034" type="qcurve" smooth="yes"/>
      <point x="1622" y="1034" type="line" smooth="yes"/>
      <point x="1550" y="1034"/>
      <point x="1442" y="1015"/>
      <point x="1367" y="976"/>
      <point x="1323" y="914"/>
      <point x="1313" y="872" type="qcurve"/>
      <point x="1292" y="924"/>
      <point x="1217" y="988"/>
      <point x="1123" y="1022"/>
      <point x="1019" y="1034"/>
      <point x="968" y="1034" type="qcurve" smooth="yes"/>
      <point x="940" y="1034" type="line" smooth="yes"/>
      <point x="822" y="1034"/>
      <point x="686" y="984"/>
      <point x="654" y="930" type="qcurve"/>
      <point x="654" y="1024" type="line"/>
      <point x="130" y="1024" type="line"/>
    </contour>
  </outline>
</glyph>
<glyph name="p" format="2">
  <advance width="1613" height="1448"/>
  <unicode hex="0070"/>
  <anchor x="817" y="1598" name="top"/>
  <anchor x="813" y="-578" name="bottom"/>
  <outline>
    <contour>
      <point x="130" y="-428" type="line"/>
      <point x="130" y="1024" type="line"/>
      <point x="654" y="1024" type="line"/>
      <point x="654" y="922" type="line"/>
      <point x="686" y="979"/>
      <point x="821" y="1034"/>
      <point x="928" y="1034" type="qcurve" smooth="yes"/>
      <point x="1192" y="1034" type="line" smooth="yes"/>
      <point x="1272" y="1034"/>
      <point x="1388" y="1003"/>
      <point x="1463" y="939"/>
      <point x="1498" y="839"/>
      <point x="1498" y="770" type="qcurve" smooth="yes"/>
      <point x="1498" y="244" type="line" smooth="yes"/>
      <point x="1498" y="179"/>
      <point x="1462" y="83"/>
      <point x="1387" y="20"/>
      <point x="1272" y="-10"/>
      <point x="1192" y="-10" type="qcurve" smooth="yes"/>
      <point x="928" y="-10" type="line" smooth="yes"/>
      <point x="821" y="-10"/>
      <point x="687" y="45"/>
      <point x="654" y="102" type="qcurve"/>
      <point x="654" y="-428" type="line"/>
    </contour>
    <contour>
      <point x="654" y="382" type="line"/>
      <point x="974" y="382" type="line"/>
      <point x="974" y="382"/>
      <point x="974" y="382"/>
      <point x="974" y="382" type="qcurve"/>
      <point x="974" y="642" type="line"/>
      <point x="974" y="642"/>
      <point x="974" y="642"/>
      <point x="974" y="642" type="qcurve"/>
      <point x="654" y="642" type="line"/>
    </contour>
  </outline>
</glyph>
<glyph name="s" format="2">
  <advance width="1512"/>
  <unicode hex="0073"/>
  <anchor x="750" y="1174" name="top"/>
  <anchor x="750" y="-150" name="bottom"/>
  <outline>
    <contour>
      <point x="105" y="258" type="line"/>
      <point x="619" y="336" type="line"/>
      <point x="619" y="262" type="line"/>
      <point x="619" y="262"/>
      <point x="619" y="262"/>
      <point x="619" y="262" type="qcurve"/>
      <point x="883" y="262" type="line"/>
      <point x="883" y="262"/>
      <point x="883" y="262"/>
      <point x="883" y="262" type="qcurve"/>
      <point x="883" y="358" type="line"/>
      <point x="883" y="358"/>
      <point x="883" y="358"/>
      <point x="883" y="358" type="qcurve"/>
      <point x="423" y="358" type="line" smooth="yes"/>
      <point x="351" y="358"/>
      <point x="237" y="389"/>
      <point x="159" y="458"/>
      <point x="117" y="567"/>
      <point x="117" y="646" type="qcurve" smooth="yes"/>
      <point x="117" y="768" type="line" smooth="yes"/>
      <point x="117" y="845"/>
      <point x="175" y="948"/>
      <point x="272" y="1009"/>
      <point x="399" y="1034"/>
      <point x="469" y="1034" type="qcurve" smooth="yes"/>
      <point x="1111" y="1034" type="line" smooth="yes"/>
      <point x="1177" y="1034"/>
      <point x="1283" y="1005"/>
      <point x="1356" y="947"/>
      <point x="1393" y="860"/>
      <point x="1389" y="802" type="qcurve"/>
      <point x="1389" y="772" type="line"/>
      <point x="875" y="694" type="line"/>
      <point x="875" y="762" type="line"/>
      <point x="875" y="762"/>
      <point x="875" y="762"/>
      <point x="875" y="762" type="qcurve"/>
      <point x="641" y="762" type="line"/>
      <point x="641" y="762"/>
      <point x="641" y="762"/>
      <point x="641" y="762" type="qcurve"/>
      <point x="641" y="676" type="line"/>
      <point x="641" y="676"/>
      <point x="641" y="676"/>
      <point x="641" y="676" type="qcurve"/>
      <point x="1099" y="676" type="line" smooth="yes"/>
      <point x="1169" y="676"/>
      <point x="1282" y="656"/>
      <point x="1363" y="600"/>
      <point x="1407" y="502"/>
      <point x="1407" y="424" type="qcurve" smooth="yes"/>
      <point x="1407" y="252" type="line" smooth="yes"/>
      <point x="1407" y="173"/>
      <point x="1365" y="71"/>
      <point x="1286" y="12"/>
      <point x="1172" y="-10"/>
      <point x="1099" y="-10" type="qcurve" smooth="yes"/>
      <point x="411" y="-10" type="line" smooth="yes"/>
      <point x="339" y="-10"/>
      <point x="225" y="14"/>
      <point x="147" y="71"/>
      <point x="105" y="164"/>
      <point x="105" y="232" type="qcurve" smooth="yes"/>
    </contour>
  </outline>
</glyph>
<glyph name="braceleft" format="2">
  <advance width="1085"/>
  <unicode hex="007B"/>
  <outline>
    <contour>
      <point x="304" y="18" type="line"/>
      <point x="304" y="257" type="line" smooth="yes"/>
      <point x="304" y="298"/>
      <point x="281" y="364"/>
      <point x="231" y="410"/>
      <point x="151" y="435"/>
      <point x="94" y="435" type="qcurve"/>
      <point x="94" y="759" type="line"/>
      <point x="151" y="759"/>
      <point x="231" y="784"/>
      <point x="281" y="831"/>
      <point x="304" y="897"/>
      <point x="304" y="937" type="qcurve" smooth="yes"/>
      <point x="304" y="1164" type="line" smooth="yes"/>
      <point x="304" y="1232"/>
      <point x="347" y="1337"/>
      <point x="425" y="1410"/>
      <point x="535" y="1448"/>
      <point x="602" y="1448" type="qcurve" smooth="yes"/>
      <point x="1035" y="1448" type="line"/>
      <point x="1035" y="1098" type="line"/>
      <point x="866" y="1098" type="line" smooth="yes"/>
      <point x="833" y="1098"/>
      <point x="787" y="1085"/>
      <point x="758" y="1057"/>
      <point x="744" y="1015"/>
      <point x="744" y="986" type="qcurve" smooth="yes"/>
      <point x="744" y="877" type="line" smooth="yes"/>
      <point x="744" y="766"/>
      <point x="640" y="624"/>
      <point x="544" y="597" type="qcurve"/>
      <point x="592" y="584"/>
      <point x="667" y="534"/>
      <point x="718" y="464"/>
      <point x="744" y="373"/>
      <point x="744" y="317" type="qcurve" smooth="yes"/>
      <point x="744" y="206" type="line" smooth="yes"/>
      <point x="744" y="177"/>
      <point x="758" y="135"/>
      <point x="787" y="107"/>
      <point x="833" y="94"/>
      <point x="866" y="94" type="qcurve" smooth="yes"/>
      <point x="1035" y="94" type="line"/>
      <point x="1035" y="-256" type="line"/>
      <point x="602" y="-256" type="line" smooth="yes"/>
      <point x="535" y="-256"/>
      <point x="425" y="-218"/>
      <point x="347" y="-147"/>
      <point x="304" y="-46"/>
      <point x="304" y="18" type="qcurve"/>
    </contour>
  </outline>
</glyph>
<glyph name="copyright" format="2">
  <advance width="1974"/>
  <unicode hex="00A9"/>
  <outline>
    <contour>
      <point x="462" y="548" type="line"/>
      <point x="462" y="862" type="line" smooth="yes"/>
      <point x="462" y="932"/>
      <point x="499" y="1030"/>
      <point x="577" y="1093"/>
      <point x="701" y="1122"/>
      <point x="788" y="1122" type="qcurve" smooth="yes"/>
      <point x="1190" y="1122" type="line" smooth="yes"/>
      <point x="1277" y="1122"/>
      <point x="1399" y="1094"/>
      <point x="1477" y="1032"/>
      <point x="1512" y="935"/>
      <point x="1512" y="866" type="qcurve" smooth="yes"/>
      <point x="1512" y="834" type="line"/>
      <point x="1078" y="745" type="line"/>
      <point x="1078" y="790" type="line"/>
      <point x="1078" y="790"/>
      <point x="1078" y="790"/>
      <point x="1078" y="790" type="qcurve"/>
      <point x="896" y="790" type="line"/>
      <point x="896" y="790"/>
      <point x="896" y="790"/>
      <point x="896" y="790" type="qcurve"/>
      <point x="896" y="610" type="line"/>
      <point x="896" y="610"/>
      <point x="896" y="610"/>
      <point x="896" y="610" type="qcurve"/>
      <point x="1082" y="610" type="line"/>
      <point x="1082" y="610"/>
      <point x="1082" y="610"/>
      <point x="1082" y="610" type="qcurve"/>
      <point x="1082" y="662" type="line"/>
      <point x="1516" y="573" type="line"/>
      <point x="1516" y="548" type="line" smooth="yes"/>
      <point x="1516" y="475"/>
      <point x="1481" y="373"/>
      <point x="1404" y="308"/>
      <point x="1281" y="278"/>
      <point x="1192" y="278" type="qcurve" smooth="yes"/>
      <point x="786" y="278" type="line" smooth="yes"/>
      <point x="698" y="278"/>
      <point x="574" y="308"/>
      <point x="497" y="373"/>
      <point x="462" y="475"/>
      <point x="462" y="548" type="qcurve"/>
    </contour>
    <contour>
      <point x="158" y="1044" type="line" smooth="yes"/>
      <point x="158" y="1144"/>
      <point x="213" y="1273"/>
      <point x="318" y="1348"/>
      <point x="471" y="1378"/>
      <point x="570" y="1378" type="qcurve" smooth="yes"/>
      <point x="1386" y="1378" type="line" smooth="yes"/>
      <point x="1485" y="1378"/>
      <point x="1639" y="1351"/>
      <point x="1745" y="1278"/>
      <point x="1800" y="1148"/>
      <point x="1800" y="1044" type="qcurve" smooth="yes"/>
      <point x="1800" y="368" type="line" smooth="yes"/>
      <point x="1800" y="265"/>
      <point x="1745" y="131"/>
      <point x="1639" y="53"/>
      <point x="1485" y="22"/>
      <point x="1386" y="22" type="qcurve" smooth="yes"/>
      <point x="570" y="22" type="line" smooth="yes"/>
      <point x="471" y="22"/>
      <point x="318" y="52"/>
      <point x="213" y="130"/>
      <point x="158" y="264"/>
      <point x="158" y="368" type="qcurve" smooth="yes"/>
    </contour>
    <contour>
      <point x="352" y="1050" type="line"/>
      <point x="352" y="367" type="line" smooth="yes"/>
      <point x="352" y="315"/>
      <point x="381" y="247"/>
      <point x="436" y="207"/>
      <point x="518" y="192"/>
      <point x="570" y="192" type="qcurve" smooth="yes"/>
      <point x="1386" y="192" type="line" smooth="yes"/>
      <point x="1439" y="192"/>
      <point x="1521" y="207"/>
      <point x="1577" y="246"/>
      <point x="1606" y="314"/>
      <point x="1606" y="366" type="qcurve" smooth="yes"/>
      <point x="1606" y="1051" type="line" smooth="yes"/>
      <point x="1606" y="1098"/>
      <point x="1577" y="1159"/>
      <point x="1520" y="1194"/>
      <point x="1439" y="1208"/>
      <point x="1386" y="1208" type="qcurve" smooth="yes"/>
      <point x="570" y="1208" type="line" smooth="yes"/>
      <point x="518" y="1208"/>
      <point x="437" y="1194"/>
      <point x="381" y="1159"/>
      <point x="352" y="1098"/>
      <point x="352" y="1050" type="qcurve"/>
    </contour>
  </outline>
</glyph>
<glyph name="logicalnot" format="2">
  <advance width="1448"/>
  <unicode hex="00AC"/>
  <outline>
    <contour>
      <point x="1331" y="212" type="line"/>
      <point x="1009" y="212" type="line"/>
      <point x="1009" y="672" type="line"/>
      <point x="117" y="672" type="line"/>
      <point x="117" y="962" type="line"/>
      <point x="1331" y="962" type="line"/>
    </contour>
  </outline>
</glyph>
<glyph name="ordmasculine" format="2">
  <advance width="1055"/>
  <unicode hex="00BA"/>
  <outline>
    <contour>
      <point x="86" y="961" type="line"/>
      <point x="86" y="1306" type="line" smooth="yes"/>
      <point x="86" y="1392"/>
      <point x="181" y="1472"/>
      <point x="285" y="1472" type="qcurve" smooth="yes"/>
      <point x="768" y="1472" type="line" smooth="yes"/>
      <point x="873" y="1472"/>
      <point x="968" y="1392"/>
      <point x="968" y="1306" type="qcurve" smooth="yes"/>
      <point x="968" y="961" type="line" smooth="yes"/>
      <point x="968" y="871"/>
      <point x="875" y="788"/>
      <point x="768" y="788" type="qcurve" smooth="yes"/>
      <point x="285" y="788" type="line" smooth="yes"/>
      <point x="180" y="788"/>
      <point x="86" y="870"/>
      <point x="86" y="961" type="qcurve"/>
    </contour>
    <contour>
      <point x="426" y="1037" type="line"/>
      <point x="426" y="1037"/>
      <point x="426" y="1037"/>
      <point x="426" y="1037" type="qcurve"/>
      <point x="628" y="1037" type="line"/>
      <point x="628" y="1037"/>
      <point x="628" y="1037"/>
      <point x="628" y="1037" type="qcurve"/>
      <point x="628" y="1223" type="line"/>
      <point x="628" y="1223"/>
      <point x="628" y="1223"/>
      <point x="628" y="1223" type="qcurve"/>
      <point x="426" y="1223" type="line"/>
      <point x="426" y="1223"/>
      <point x="426" y="1223"/>
      <point x="426" y="1223" type="qcurve"/>
    </contour>
  </outline>
</glyph>
<glyph name="florin" format="2">
  <advance width="1405"/>
  <unicode hex="0192"/>
  <outline>
    <contour>
      <point x="0" y="-428" type="line"/>
      <point x="124" y="-96" type="line"/>
      <point x="334" y="-96" type="line"/>
      <point x="334" y="-96"/>
      <point x="334" y="-96"/>
      <point x="334" y="-96" type="qcurve"/>
      <point x="457" y="602" type="line"/>
      <point x="318" y="602" type="line"/>
      <point x="372" y="904" type="line"/>
      <point x="511" y="904" type="line"/>
      <point x="559" y="1176" type="line" smooth="yes"/>
      <point x="573" y="1254"/>
      <point x="632" y="1366"/>
      <point x="724" y="1438"/>
      <point x="848" y="1472"/>
      <point x="925" y="1472" type="qcurve" smooth="yes"/>
      <point x="1405" y="1472" type="line"/>
      <point x="1292" y="1170" type="line"/>
      <point x="1082" y="1170" type="line"/>
      <point x="1082" y="1170"/>
      <point x="1082" y="1170"/>
      <point x="1082" y="1170" type="qcurve"/>
      <point x="1035" y="904" type="line"/>
      <point x="1238" y="904" type="line"/>
      <point x="1184" y="602" type="line"/>
      <point x="981" y="602" type="line"/>
      <point x="857" y="-102" type="line" smooth="yes"/>
      <point x="844" y="-176"/>
      <point x="786" y="-296"/>
      <point x="703" y="-381"/>
      <point x="599" y="-428"/>
      <point x="540" y="-428" type="qcurve" smooth="yes"/>
    </contour>
  </outline>
</glyph>
<glyph name="uni031B" format="2">
  <unicode hex="031B"/>
  <anchor x="0" y="1024" name="_horn"/>
  <outline>
    <contour>
      <point x="0" y="789" type="line"/>
      <point x="137" y="789"/>
      <point x="320" y="840"/>
      <point x="431" y="936"/>
      <point x="477" y="1076"/>
      <point x="477" y="1166" type="qcurve" smooth="yes"/>
      <point x="477" y="1217"/>
      <point x="464" y="1330"/>
      <point x="453" y="1393" type="qcurve"/>
      <point x="101" y="1328" type="line"/>
      <point x="109" y="1284"/>
      <point x="116" y="1209"/>
      <point x="116" y="1178" type="qcurve" smooth="yes"/>
      <point x="116" y="1140"/>
      <point x="103" y="1082"/>
      <point x="76" y="1043"/>
      <point x="32" y="1024"/>
      <point x="0" y="1024" type="qcurve"/>
    </contour>
  </outline>
</glyph>
<glyph name="uni040B" format="2">
  <advance width="2184"/>
  <unicode hex="040B"/>
  <outline>
    <contour>
      <point x="526" y="0" type="line"/>
      <point x="1098" y="0" type="line"/>
      <point x="1098" y="508" type="line"/>
      <point x="1436" y="508" type="line" smooth="yes"/>
      <point x="1453" y="508"/>
      <point x="1478" y="499"/>
      <point x="1495" y="484"/>
      <point x="1504" y="462"/>
      <point x="1504" y="448" type="qcurve" smooth="yes"/>
      <point x="1504" y="0" type="line"/>
      <point x="2076" y="0" type="line"/>
      <point x="2076" y="558" type="line" smooth="yes"/>
      <point x="2076" y="659"/>
      <point x="2018" y="786"/>
      <point x="1910" y="858"/>
      <point x="1757" y="884"/>
      <point x="1662" y="884" type="qcurve" smooth="yes"/>
      <point x="1098" y="884" type="line"/>
      <point x="1098" y="1024" type="line"/>
      <point x="1574" y="1024" type="line"/>
      <point x="1574" y="1400" type="line"/>
      <point x="50" y="1400" type="line"/>
      <point x="50" y="1024" type="line"/>
      <point x="526" y="1024" type="line"/>
    </contour>
  </outline>
</glyph>
<glyph name="uni0426" format="2">
  <advance width="2060"/>
  <unicode hex="0426"/>
  <outline>
    <contour>
      <point x="180" y="0" type="line"/>
      <point x="1555" y="0" type="line"/>
      <point x="1581" y="-260" type="line"/>
      <point x="2065" y="-260" type="line"/>
      <point x="2065" y="484" type="line"/>
      <point x="1840" y="484" type="line"/>
      <point x="1840" y="1400" type="line"/>
      <point x="1268" y="1400" type="line"/>
      <point x="1268" y="484" type="line"/>
      <point x="752" y="484" type="line"/>
      <point x="752" y="1400" type="line"/>
      <point x="180" y="1400" type="line"/>
    </contour>
  </outline>
</glyph>
<glyph name="uni044A" format="2">
  <advance width="1749"/>
  <unicode hex="044A"/>
  <outline>
    <contour>
      <point x="267" y="0" type="line"/>
      <point x="1328" y="0" type="line" smooth="yes"/>
      <point x="1408" y="0"/>
      <point x="1523" y="23"/>
      <point x="1598" y="71"/>
      <point x="1634" y="144"/>
      <point x="1634" y="193" type="qcurve" smooth="yes"/>
      <point x="1634" y="604" type="line" smooth="yes"/>
      <point x="1634" y="653"/>
      <point x="1598" y="726"/>
      <point x="1523" y="774"/>
      <point x="1408" y="797"/>
      <point x="1328" y="797" type="qcurve" smooth="yes"/>
      <point x="1065" y="797" type="line" smooth="yes"/>
      <point x="958" y="797"/>
      <point x="824" y="759"/>
      <point x="791" y="718" type="qcurve"/>
      <point x="791" y="1024" type="line"/>
      <point x="0" y="1024" type="line"/>
      <point x="0" y="642" type="line"/>
      <point x="267" y="642" type="line"/>
    </contour>
    <contour>
      <point x="791" y="312" type="line"/>
      <point x="791" y="485" type="line"/>
      <point x="1110" y="485" type="line"/>
      <point x="1110" y="485"/>
      <point x="1110" y="485"/>
      <point x="1110" y="485" type="qcurve"/>
      <point x="1110" y="312" type="line"/>
      <point x="1110" y="312"/>
      <point x="1110" y="312"/>
      <point x="1110" y="312" type="qcurve"/>
    </contour>
  </outline>
</glyph>
<glyph name="uni0452" format="2">
  <advance width="1612"/>
  <unicode hex="0452"/>
  <anchor x="1067" y="1174" name="top"/>
  <anchor x="764" y="-150" name="bottom"/>
  <anchor x="30" y="518" name="left"/>
  <outline>
    <contour>
      <point x="230" y="0" type="line"/>
      <point x="754" y="0" type="line"/>
      <point x="754" y="602" type="line"/>
      <point x="972" y="602" type="line"/>
      <point x="972" y="602"/>
      <point x="972" y="602"/>
      <point x="972" y="602" type="qcurve"/>
      <point x="972" y="-80" type="line"/>
      <point x="972" y="-80"/>
      <point x="972" y="-80"/>
      <point x="972" y="-80" type="qcurve"/>
      <point x="791" y="-80" type="line"/>
      <point x="863" y="-428" type="line"/>
      <point x="1128" y="-428" type="line" smooth="yes"/>
      <point x="1224" y="-428"/>
      <point x="1363" y="-393"/>
      <point x="1453" y="-319"/>
      <point x="1496" y="-206"/>
      <point x="1496" y="-128" type="qcurve" smooth="yes"/>
      <point x="1496" y="734" type="line" smooth="yes"/>
      <point x="1496" y="812"/>
      <point x="1453" y="925"/>
      <point x="1363" y="999"/>
      <point x="1224" y="1034"/>
      <point x="1128" y="1034" type="qcurve" smooth="yes"/>
      <point x="1040" y="1034" type="line" smooth="yes"/>
      <point x="922" y="1034"/>
      <point x="786" y="984"/>
      <point x="754" y="930" type="qcurve"/>
      <point x="754" y="1103" type="line"/>
      <point x="1040" y="1103" type="line"/>
      <point x="1040" y="1379" type="line"/>
      <point x="754" y="1379" type="line"/>
      <point x="754" y="1472" type="line"/>
      <point x="230" y="1472" type="line"/>
      <point x="230" y="1379" type="line"/>
      <point x="80" y="1379" type="line"/>
      <point x="80" y="1103" type="line"/>
      <point x="230" y="1103" type="line"/>
    </contour>
  </outline>
</glyph>
<glyph name="uni04A4" format="2">
  <advance width="2420"/>
  <unicode hex="04A4"/>
  <anchor x="822" y="1550" name="top"/>
  <anchor x="1038" y="-150" name="bottom"/>
  <anchor x="80" y="700" name="left"/>
  <outline>
    <contour>
      <point x="180" y="0" type="line"/>
      <point x="752" y="0" type="line"/>
      <point x="752" y="482" type="line"/>
      <point x="1322" y="482" type="line"/>
      <point x="1322" y="0" type="line"/>
      <point x="1894" y="0" type="line"/>
      <point x="1894" y="916" type="line"/>
      <point x="2370" y="916" type="line"/>
      <point x="2370" y="1400" type="line"/>
      <point x="1322" y="1400" type="line"/>
      <point x="1322" y="966" type="line"/>
      <point x="752" y="966" type="line"/>
      <point x="752" y="1400" type="line"/>
      <point x="180" y="1400" type="line"/>
    </contour>
  </outline>
  <guideline angle="90" color="1,0,0,1" x="1037" y="0"/>
</glyph>
<glyph name="uni04B3" format="2">
  <advance width="1549"/>
  <unicode hex="04B3"/>
  <outline>
    <contour>
      <point x="457" y="524" type="line"/>
      <point x="0" y="0" type="line"/>
      <point x="575" y="0" type="line"/>
      <point x="742" y="222" type="line"/>
      <point x="917" y="0" type="line" name="ATT"/>
      <point x="1050" y="0" type="line"/>
      <point x="1075" y="-240" type="line"/>
      <point x="1549" y="-240" type="line"/>
      <point x="1549" y="382" type="line"/>
      <point x="1199" y="382" type="line"/>
      <point x="1055" y="530" type="line"/>
      <point x="1493" y="1024" type="line"/>
      <point x="913" y="1024" type="line"/>
      <point x="769" y="832" type="line"/>
      <point x="625" y="1024" type="line"/>
      <point x="0" y="1024" type="line"/>
    </contour>
  </outline>
</glyph>
<glyph name="bullet" format="2">
  <advance width="1010"/>
  <unicode hex="2022"/>
  <outline>
    <contour>
      <point x="180" y="431" type="line"/>
      <point x="180" y="782" type="line" smooth="yes"/>
      <point x="180" y="826"/>
      <point x="190" y="880"/>
      <point x="221" y="910"/>
      <point x="276" y="920"/>
      <point x="321" y="920" type="qcurve" smooth="yes"/>
      <point x="688" y="920" type="line" smooth="yes"/>
      <point x="733" y="920"/>
      <point x="789" y="910"/>
      <point x="819" y="880"/>
      <point x="830" y="825"/>
      <point x="830" y="780" type="qcurve" smooth="yes"/>
      <point x="830" y="431" type="line" smooth="yes"/>
      <point x="830" y="386"/>
      <point x="820" y="331"/>
      <point x="789" y="300"/>
      <point x="734" y="290"/>
      <point x="689" y="290" type="qcurve" smooth="yes"/>
      <point x="321" y="290" type="line" smooth="yes"/>
      <point x="276" y="290"/>
      <point x="221" y="300"/>
      <point x="190" y="331"/>
      <point x="180" y="386"/>
      <point x="180" y="431" type="qcurve"/>
    </contour>
  </outline>
</glyph>
<glyph name="uni20AD" format="2">
  <advance width="2021" height="1448"/>
  <unicode hex="20AD"/>
  <outline>
    <contour>
      <point x="-80" y="820" type="line"/>
      <point x="1710" y="820" type="line"/>
      <point x="1710" y="596" type="line"/>
      <point x="-80" y="596" type="line"/>
    </contour>
    <contour>
      <point x="180" y="1400" type="line"/>
      <point x="752" y="1400" type="line"/>
      <point x="752" y="745" type="line"/>
      <point x="699" y="745" type="line"/>
      <point x="1258" y="1400" type="line"/>
      <point x="1903" y="1400" type="line"/>
      <point x="1322" y="745" type="line"/>
      <point x="1324" y="763" type="line"/>
      <point x="2021" y="0" type="line"/>
      <point x="1257" y="0" type="line"/>
      <point x="624" y="734" type="line"/>
      <point x="752" y="673" type="line"/>
      <point x="752" y="0" type="line"/>
      <point x="180" y="0" type="line"/>
    </contour>
  </outline>
</glyph>
<glyph name="uni20B4" format="2">
  <advance width="1859"/>
  <unicode hex="20B4"/>
  <outline>
    <contour>
      <point x="1741" y="659" type="line"/>
      <point x="1741" y="499" type="line"/>
      <point x="750" y="499" type="line"/>
      <point x="750" y="499"/>
      <point x="750" y="499"/>
      <point x="750" y="499"/>
      <point x="750" y="499"/>
      <point x="750" y="499" type="qcurve"/>
      <point x="750" y="350" type="line"/>
      <point x="750" y="350"/>
      <point x="750" y="350"/>
      <point x="750" y="350"/>
      <point x="750" y="350"/>
      <point x="750" y="350" type="qcurve"/>
      <point x="1126" y="350" type="line"/>
      <point x="1126" y="350"/>
      <point x="1126" y="350"/>
      <point x="1126" y="350"/>
      <point x="1126" y="350"/>
      <point x="1126" y="350" type="qcurve"/>
      <point x="1126" y="452" type="line"/>
      <point x="1672" y="400" type="line"/>
      <point x="1672" y="328" type="line" smooth="yes"/>
      <point x="1672" y="222"/>
      <point x="1615" y="89"/>
      <point x="1509" y="14"/>
      <point x="1357" y="-14"/>
      <point x="1262" y="-14" type="qcurve" smooth="yes"/>
      <point x="616" y="-14" type="line" smooth="yes"/>
      <point x="520" y="-14"/>
      <point x="367" y="7"/>
      <point x="261" y="73"/>
      <point x="204" y="197"/>
      <point x="204" y="300" type="qcurve" smooth="yes"/>
      <point x="204" y="312" type="line" smooth="yes"/>
      <point x="204" y="344"/>
      <point x="213" y="398"/>
      <point x="231" y="444"/>
      <point x="257" y="483"/>
      <point x="274" y="499" type="qcurve"/>
      <point x="118" y="499" type="line"/>
      <point x="118" y="659" type="line"/>
    </contour>
    <contour>
      <point x="118" y="751" type="line"/>
      <point x="118" y="911" type="line"/>
      <point x="1096" y="911" type="line"/>
      <point x="1096" y="911"/>
      <point x="1096" y="911"/>
      <point x="1096" y="911"/>
      <point x="1096" y="911"/>
      <point x="1096" y="911" type="qcurve"/>
      <point x="1096" y="1050" type="line"/>
      <point x="1096" y="1050"/>
      <point x="1096" y="1050"/>
      <point x="1096" y="1050"/>
      <point x="1096" y="1050"/>
      <point x="1096" y="1050" type="qcurve"/>
      <point x="770" y="1050" type="line"/>
      <point x="770" y="1050"/>
      <point x="770" y="1050"/>
      <point x="770" y="1050"/>
      <point x="770" y="1050"/>
      <point x="770" y="1050" type="qcurve"/>
      <point x="770" y="968" type="line"/>
      <point x="224" y="1018" type="line"/>
      <point x="224" y="1086" type="line" smooth="yes"/>
      <point x="224" y="1189"/>
      <point x="284" y="1317"/>
      <point x="392" y="1389"/>
      <point x="543" y="1414"/>
      <point x="634" y="1414" type="qcurve" smooth="yes"/>
      <point x="1226" y="1414" type="line" smooth="yes"/>
      <point x="1318" y="1414"/>
      <point x="1470" y="1391"/>
      <point x="1581" y="1324"/>
      <point x="1642" y="1202"/>
      <point x="1642" y="1102" type="qcurve" smooth="yes"/>
      <point x="1642" y="1088" type="line" smooth="yes"/>
      <point x="1642" y="1059"/>
      <point x="1635" y="1009"/>
      <point x="1622" y="965"/>
      <point x="1602" y="927"/>
      <point x="1589" y="911" type="qcurve"/>
      <point x="1741" y="911" type="line"/>
      <point x="1741" y="751" type="line"/>
    </contour>
  </outline>
</glyph>
<glyph name="uni20B5" format="2">
  <advance width="1894" height="1448"/>
  <unicode hex="20B5"/>
  <outline>
    <contour>
      <point x="812" y="-164" type="line"/>
      <point x="1126" y="-164" type="line"/>
      <point x="1126" y="-14" type="line"/>
      <point x="1362" y="-14" type="line" smooth="yes"/>
      <point x="1461" y="-14"/>
      <point x="1615" y="17"/>
      <point x="1721" y="95"/>
      <point x="1776" y="229"/>
      <point x="1776" y="332" type="qcurve" smooth="yes"/>
      <point x="1776" y="474" type="line"/>
      <point x="1204" y="586" type="line"/>
      <point x="1204" y="450" type="line"/>
      <point x="1204" y="450"/>
      <point x="1204" y="450"/>
      <point x="1204" y="450"/>
      <point x="1204" y="450"/>
      <point x="1204" y="450" type="qcurve"/>
      <point x="1126" y="450" type="line"/>
      <point x="1126" y="950" type="line"/>
      <point x="1200" y="950" type="line"/>
      <point x="1200" y="950"/>
      <point x="1200" y="950"/>
      <point x="1200" y="950"/>
      <point x="1200" y="950"/>
      <point x="1200" y="950" type="qcurve"/>
      <point x="1200" y="840" type="line"/>
      <point x="1772" y="946" type="line"/>
      <point x="1772" y="1080" type="line" smooth="yes"/>
      <point x="1772" y="1181"/>
      <point x="1714" y="1310"/>
      <point x="1606" y="1385"/>
      <point x="1453" y="1414"/>
      <point x="1358" y="1414" type="qcurve" smooth="yes"/>
      <point x="1126" y="1414" type="line"/>
      <point x="1126" y="1564" type="line"/>
      <point x="812" y="1564" type="line"/>
      <point x="812" y="1414" type="line"/>
      <point x="570" y="1414" type="line" smooth="yes"/>
      <point x="476" y="1414"/>
      <point x="323" y="1385"/>
      <point x="216" y="1310"/>
      <point x="158" y="1181"/>
      <point x="158" y="1080" type="qcurve" smooth="yes"/>
      <point x="158" y="332" type="line" smooth="yes"/>
      <point x="158" y="229"/>
      <point x="213" y="95"/>
      <point x="318" y="17"/>
      <point x="471" y="-14"/>
      <point x="570" y="-14" type="qcurve" smooth="yes"/>
      <point x="812" y="-14" type="line"/>
    </contour>
    <contour>
      <point x="730" y="450" type="line"/>
      <point x="730" y="450"/>
      <point x="730" y="450"/>
      <point x="730" y="450"/>
      <point x="730" y="450"/>
      <point x="730" y="450" type="qcurve"/>
      <point x="730" y="950" type="line"/>
      <point x="730" y="950"/>
      <point x="730" y="950"/>
      <point x="730" y="950"/>
      <point x="730" y="950"/>
      <point x="730" y="950" type="qcurve"/>
      <point x="812" y="950" type="line"/>
      <point x="812" y="450" type="line"/>
    </contour>
  </outline>
</glyph>
<glyph name="uni2190" format="2">
  <advance width="1552"/>
  <unicode hex="2190"/>
  <outline>
    <contour>
      <point x="787" y="292" type="line"/>
      <point x="787" y="541" type="line"/>
      <point x="1492" y="541" type="line"/>
      <point x="1492" y="941" type="line"/>
      <point x="787" y="941" type="line"/>
      <point x="787" y="1190" type="line"/>
      <point x="10" y="741" type="line"/>
    </contour>
  </outline>
</glyph>
<glyph name="greaterequal" format="2">
  <advance width="1448"/>
  <unicode hex="2265"/>
  <outline>
    <contour>
      <point x="117" y="0" type="line"/>
      <point x="1331" y="0" type="line"/>
      <point x="1331" y="290" type="line"/>
      <point x="117" y="290" type="line"/>
      <point x="117" y="0" type="line"/>
    </contour>
    <contour>
      <point x="117" y="398" type="line"/>
      <point x="1331" y="764" type="line"/>
      <point x="1331" y="1034" type="line"/>
      <point x="117" y="1399" type="line"/>
      <point x="117" y="1095" type="line"/>
      <point x="1007" y="854" type="line"/>
      <point x="1007" y="944" type="line"/>
      <point x="117" y="702" type="line"/>
      <point x="117" y="398" type="line"/>
    </contour>
  </outline>
</glyph>
<glyph name="ampersand.sc" format="2">
  <advance width="1543"/>
  <outline>
    <contour>
      <point x="297" y="-8" type="line"/>
      <point x="740" y="-8" type="line" smooth="yes"/>
      <point x="766" y="-8"/>
      <point x="816" y="4"/>
      <point x="862" y="26"/>
      <point x="906" y="55"/>
      <point x="926" y="71" type="qcurve"/>
      <point x="926" y="71" type="line"/>
      <point x="1000" y="0" type="line"/>
      <point x="1543" y="0" type="line"/>
      <point x="1219" y="310" type="line"/>
      <point x="1457" y="514" type="line"/>
      <point x="1222" y="749" type="line"/>
      <point x="978" y="542" type="line"/>
      <point x="711" y="796" type="line"/>
      <point x="711" y="796"/>
      <point x="711" y="796"/>
      <point x="711" y="796"/>
      <point x="711" y="796"/>
      <point x="711" y="796" type="qcurve"/>
      <point x="711" y="826" type="line"/>
      <point x="711" y="826"/>
      <point x="711" y="826"/>
      <point x="711" y="826"/>
      <point x="711" y="826"/>
      <point x="711" y="826" type="qcurve"/>
      <point x="802" y="826" type="line"/>
      <point x="802" y="826"/>
      <point x="802" y="826"/>
      <point x="802" y="826"/>
      <point x="802" y="826"/>
      <point x="802" y="826" type="qcurve"/>
      <point x="802" y="734" type="line"/>
      <point x="1210" y="806" type="line"/>
      <point x="1210" y="873" type="line" smooth="yes"/>
      <point x="1210" y="929"/>
      <point x="1167" y="1013"/>
      <point x="1091" y="1069"/>
      <point x="987" y="1097"/>
      <point x="925" y="1097" type="qcurve" smooth="yes"/>
      <point x="536" y="1097" type="line" smooth="yes"/>
      <point x="475" y="1097"/>
      <point x="378" y="1067"/>
      <point x="310" y="1008"/>
      <point x="275" y="922"/>
      <point x="275" y="865" type="qcurve" smooth="yes"/>
      <point x="275" y="836" type="line" smooth="yes"/>
      <point x="275" y="811"/>
      <point x="276" y="766"/>
      <point x="281" y="725"/>
      <point x="291" y="687"/>
      <point x="300" y="669" type="qcurve"/>
      <point x="171" y="580" type="line" smooth="yes"/>
      <point x="140" y="559"/>
      <point x="93" y="517"/>
      <point x="61" y="471"/>
      <point x="45" y="419"/>
      <point x="45" y="387" type="qcurve" smooth="yes"/>
      <point x="45" y="187" type="line" smooth="yes"/>
      <point x="45" y="146"/>
      <point x="93" y="75"/>
      <point x="167" y="22"/>
      <point x="256" y="-8"/>
      <point x="297" y="-8" type="qcurve"/>
    </contour>
    <contour>
      <point x="465" y="292" type="line"/>
      <point x="465" y="292"/>
      <point x="465" y="292"/>
      <point x="465" y="292"/>
      <point x="465" y="292"/>
      <point x="465" y="292" type="qcurve"/>
      <point x="465" y="370" type="line"/>
      <point x="465" y="370"/>
      <point x="465" y="370"/>
      <point x="465" y="370"/>
      <point x="465" y="370"/>
      <point x="465" y="370" type="qcurve"/>
      <point x="536" y="422" type="line"/>
      <point x="536" y="422"/>
      <point x="536" y="422"/>
      <point x="536" y="422" type="qcurve"/>
      <point x="670" y="297" type="line"/>
      <point x="667" y="292" type="line"/>
      <point x="667" y="292"/>
      <point x="667" y="292"/>
      <point x="667" y="292"/>
      <point x="667" y="292"/>
      <point x="667" y="292" type="qcurve"/>
    </contour>
  </outline>
</glyph>
<glyph name="colonmonetary.alt" format="2">
  <advance width="1894" height="1448"/>
  <outline>
    <contour>
      <point x="158" y="1040" type="line"/>
      <point x="158" y="372" type="line" smooth="yes"/>
      <point x="158" y="269"/>
      <point x="213" y="135"/>
      <point x="318" y="57"/>
      <point x="471" y="26"/>
      <point x="570" y="26" type="qcurve" smooth="yes"/>
      <point x="1362" y="26" type="line" smooth="yes"/>
      <point x="1461" y="26"/>
      <point x="1615" y="57"/>
      <point x="1721" y="135"/>
      <point x="1776" y="269"/>
      <point x="1776" y="372" type="qcurve" smooth="yes"/>
      <point x="1776" y="514" type="line"/>
      <point x="1204" y="626" type="line"/>
      <point x="1204" y="490" type="line"/>
      <point x="1204" y="490"/>
      <point x="1204" y="490"/>
      <point x="1204" y="490"/>
      <point x="1204" y="490"/>
      <point x="1204" y="490" type="qcurve"/>
      <point x="730" y="490" type="line"/>
      <point x="730" y="490"/>
      <point x="730" y="490"/>
      <point x="730" y="490"/>
      <point x="730" y="490"/>
      <point x="730" y="490" type="qcurve"/>
      <point x="730" y="910" type="line"/>
      <point x="730" y="910"/>
      <point x="730" y="910"/>
      <point x="730" y="910"/>
      <point x="730" y="910"/>
      <point x="730" y="910" type="qcurve"/>
      <point x="1198" y="910" type="line"/>
      <point x="1198" y="910"/>
      <point x="1198" y="910"/>
      <point x="1198" y="910"/>
      <point x="1198" y="910"/>
      <point x="1198" y="910" type="qcurve"/>
      <point x="1198" y="800" type="line"/>
      <point x="1770" y="906" type="line"/>
      <point x="1770" y="1040" type="line" smooth="yes"/>
      <point x="1770" y="1141"/>
      <point x="1712" y="1270"/>
      <point x="1604" y="1345"/>
      <point x="1451" y="1374"/>
      <point x="1356" y="1374" type="qcurve" smooth="yes"/>
      <point x="570" y="1374" type="line" smooth="yes"/>
      <point x="476" y="1374"/>
      <point x="323" y="1345"/>
      <point x="216" y="1270"/>
      <point x="158" y="1141"/>
      <point x="158" y="1040" type="qcurve"/>
    </contour>
    <contour>
      <point x="857" y="35" type="line"/>
      <point x="808" y="-164" type="line"/>
      <point x="1049" y="-164" type="line"/>
      <point x="1098" y="35" type="line"/>
    </contour>
    <contour>
      <point x="1405" y="1358" type="line"/>
      <point x="1455" y="1563" type="line"/>
      <point x="1214" y="1563" type="line"/>
      <point x="1164" y="1358" type="line"/>
    </contour>
    <contour>
      <point x="520" y="35" type="line"/>
      <point x="471" y="-164" type="line"/>
      <point x="712" y="-164" type="line"/>
      <point x="761" y="35" type="line"/>
    </contour>
    <contour>
      <point x="1068" y="1358" type="line"/>
      <point x="1118" y="1563" type="line"/>
      <point x="877" y="1563" type="line"/>
      <point x="827" y="1358" type="line"/>
    </contour>
  </outline>
</glyph>
<glyph name="h.sc" format="2">
  <advance width="1802" height="1448"/>
  <anchor x="901" y="1236" name="top"/>
  <anchor x="901" y="-150" name="bottom"/>
  <anchor x="121" y="700" name="left"/>
  <outline>
    <contour>
      <point x="180" y="0" type="line"/>
      <point x="711" y="0" type="line"/>
      <point x="711" y="330" type="line"/>
      <point x="1091" y="330" type="line"/>
      <point x="1091" y="0" type="line"/>
      <point x="1622" y="0" type="line"/>
      <point x="1622" y="1086" type="line"/>
      <point x="1091" y="1086" type="line"/>
      <point x="1091" y="770" type="line"/>
      <point x="711" y="770" type="line"/>
      <point x="711" y="1086" type="line"/>
      <point x="180" y="1086" type="line"/>
    </contour>
  </outline>
</glyph>
<glyph name="hbar.sc" format="2">
  <advance width="1802"/>
  <outline>
    <contour>
      <point x="180" y="713" type="line"/>
      <point x="180" y="0" type="line"/>
      <point x="711" y="0" type="line"/>
      <point x="711" y="340" type="line"/>
      <point x="1091" y="340" type="line"/>
      <point x="1091" y="0" type="line"/>
      <point x="1622" y="0" type="line"/>
      <point x="1622" y="713" type="line"/>
      <point x="1702" y="713" type="line"/>
      <point x="1702" y="978" type="line"/>
      <point x="1622" y="978" type="line"/>
      <point x="1622" y="1086" type="line"/>
      <point x="1091" y="1086" type="line"/>
      <point x="1091" y="978" type="line"/>
      <point x="711" y="978" type="line"/>
      <point x="711" y="1086" type="line"/>
      <point x="180" y="1086" type="line"/>
      <point x="180" y="978" type="line"/>
      <point x="100" y="978" type="line"/>
      <point x="100" y="713" type="line"/>
    </contour>
    <contour>
      <point x="1091" y="713" type="line"/>
      <point x="1091" y="605" type="line"/>
      <point x="711" y="605" type="line"/>
      <point x="711" y="713" type="line"/>
    </contour>
  </outline>
</glyph>
<glyph name="k.sc" format="2">
  <advance width="1742" height="1448"/>
  <anchor x="1011" y="1210" name="top"/>
  <anchor x="801" y="-150.001" name="bottom"/>
  <outline>
    <contour>
      <point x="180" y="1086" type="line"/>
      <point x="180" y="0" type="line"/>
      <point x="711" y="0" type="line"/>
      <point x="711" y="427" type="line"/>
      <point x="1038" y="0" type="line"/>
      <point x="1742" y="0" type="line"/>
      <point x="1246" y="594" type="line"/>
      <point x="1655" y="1086" type="line"/>
      <point x="1071" y="1086" type="line"/>
      <point x="711" y="635" type="line"/>
      <point x="711" y="1086" type="line"/>
    </contour>
  </outline>
</glyph>
<glyph name="s.sc" format="2">
  <advance width="1567"/>
  <anchor x="779" y="1236" name="top"/>
  <anchor x="779" y="-150" name="bottom"/>
  <outline>
    <contour>
      <point x="98" y="274" type="line"/>
      <point x="605" y="334" type="line"/>
      <point x="605" y="290" type="line"/>
      <point x="605" y="290"/>
      <point x="605" y="290"/>
      <point x="605" y="290" type="qcurve"/>
      <point x="951" y="290" type="line"/>
      <point x="951" y="290"/>
      <point x="951" y="290"/>
      <point x="951" y="290" type="qcurve"/>
      <point x="951" y="380" type="line"/>
      <point x="951" y="380"/>
      <point x="951" y="380"/>
      <point x="951" y="380" type="qcurve"/>
      <point x="464" y="380" type="line" smooth="yes"/>
      <point x="384" y="380"/>
      <point x="257" y="403"/>
      <point x="169" y="466"/>
      <point x="122" y="575"/>
      <point x="122" y="662" type="qcurve" smooth="yes"/>
      <point x="122" y="824" type="line" smooth="yes"/>
      <point x="122" y="909"/>
      <point x="174" y="1016"/>
      <point x="267" y="1076"/>
      <point x="395" y="1097"/>
      <point x="472" y="1097" type="qcurve" smooth="yes"/>
      <point x="1098" y="1097" type="line" smooth="yes"/>
      <point x="1175" y="1097"/>
      <point x="1302" y="1076"/>
      <point x="1392" y="1018"/>
      <point x="1442" y="912"/>
      <point x="1442" y="828" type="qcurve" smooth="yes"/>
      <point x="1442" y="823" type="line"/>
      <point x="936" y="765" type="line"/>
      <point x="936" y="807" type="line"/>
      <point x="936" y="807"/>
      <point x="936" y="807"/>
      <point x="936" y="807" type="qcurve"/>
      <point x="629" y="807" type="line"/>
      <point x="629" y="807"/>
      <point x="629" y="807"/>
      <point x="629" y="807" type="qcurve"/>
      <point x="629" y="717" type="line"/>
      <point x="629" y="717"/>
      <point x="629" y="717"/>
      <point x="629" y="717" type="qcurve"/>
      <point x="1113" y="717" type="line" smooth="yes"/>
      <point x="1190" y="717"/>
      <point x="1317" y="697"/>
      <point x="1409" y="638"/>
      <point x="1459" y="533"/>
      <point x="1459" y="448" type="qcurve" smooth="yes"/>
      <point x="1459" y="272" type="line" smooth="yes"/>
      <point x="1459" y="184"/>
      <point x="1411" y="74"/>
      <point x="1322" y="12"/>
      <point x="1194" y="-11"/>
      <point x="1113" y="-11" type="qcurve" smooth="yes"/>
      <point x="443" y="-11" type="line" smooth="yes"/>
      <point x="363" y="-11"/>
      <point x="235" y="12"/>
      <point x="146" y="73"/>
      <point x="98" y="182"/>
      <point x="98" y="269" type="qcurve" smooth="yes"/>
    </contour>
  </outline>
</glyph>
<glyph name="tildecomb.case" format="2">
  <anchor x="0" y="1150" name="_top"/>
  <anchor x="0" y="1587" name="top"/>
  <outline>
    <contour>
      <point x="-520" y="1129" type="line"/>
      <point x="-507" y="1204"/>
      <point x="-454" y="1334"/>
      <point x="-371" y="1431"/>
      <point x="-254" y="1487"/>
      <point x="-176" y="1487" type="qcurve" smooth="yes"/>
      <point x="-138" y="1487"/>
      <point x="-75" y="1478"/>
      <point x="-23" y="1463"/>
      <point x="22" y="1447"/>
      <point x="64" y="1432"/>
      <point x="104" y="1423"/>
      <point x="126" y="1423" type="qcurve" smooth="yes"/>
      <point x="148" y="1423"/>
      <point x="178" y="1437"/>
      <point x="197" y="1457"/>
      <point x="206" y="1479"/>
      <point x="207" y="1487" type="qcurve"/>
      <point x="520" y="1435" type="line"/>
      <point x="507" y="1366"/>
      <point x="454" y="1237"/>
      <point x="371" y="1137"/>
      <point x="254" y="1077"/>
      <point x="176" y="1077" type="qcurve" smooth="yes"/>
      <point x="138" y="1077"/>
      <point x="75" y="1086"/>
      <point x="23" y="1101"/>
      <point x="-22" y="1117"/>
      <point x="-64" y="1132"/>
      <point x="-104" y="1141"/>
      <point x="-126" y="1141" type="qcurve" smooth="yes"/>
      <point x="-148" y="1141"/>
      <point x="-178" y="1127"/>
      <point x="-197" y="1107"/>
      <point x="-206" y="1085"/>
      <point x="-207" y="1077" type="qcurve"/>
    </contour>
  </outline>
  <guideline angle="90" x="-520" y="0"/>
  <guideline angle="90" x="520" y="0"/>
</glyph>
<glyph name="two.dnom" format="2">
  <advance width="1100"/>
  <outline>
    <contour>
      <point x="144" y="-7" type="line"/>
      <point x="144" y="166" type="line" smooth="yes"/>
      <point x="144" y="211"/>
      <point x="169" y="283"/>
      <point x="220" y="343"/>
      <point x="299" y="393"/>
      <point x="354" y="415" type="qcurve"/>
      <point x="656" y="529" type="line"/>
      <point x="662" y="531"/>
      <point x="669" y="535"/>
      <point x="674" y="540"/>
      <point x="676" y="546"/>
      <point x="676" y="549" type="qcurve" smooth="yes"/>
      <point x="676" y="587" type="line"/>
      <point x="676" y="587"/>
      <point x="676" y="587"/>
      <point x="676" y="587" type="qcurve"/>
      <point x="437" y="587" type="line"/>
      <point x="437" y="587"/>
      <point x="437" y="587"/>
      <point x="437" y="587" type="qcurve"/>
      <point x="437" y="508" type="line"/>
      <point x="155" y="559" type="line"/>
      <point x="155" y="613" type="line" smooth="yes"/>
      <point x="155" y="667"/>
      <point x="187" y="737"/>
      <point x="246" y="777"/>
      <point x="330" y="792"/>
      <point x="381" y="792" type="qcurve" smooth="yes"/>
      <point x="728" y="792" type="line" smooth="yes"/>
      <point x="780" y="792"/>
      <point x="865" y="777"/>
      <point x="925" y="737"/>
      <point x="958" y="667"/>
      <point x="958" y="613" type="qcurve" smooth="yes"/>
      <point x="958" y="562" type="line" smooth="yes"/>
      <point x="958" y="518"/>
      <point x="938" y="454"/>
      <point x="890" y="403"/>
      <point x="809" y="360"/>
      <point x="749" y="337" type="qcurve"/>
      <point x="460" y="233" type="line"/>
      <point x="450" y="230"/>
      <point x="436" y="223"/>
      <point x="428" y="216"/>
      <point x="424" y="208"/>
      <point x="424" y="203" type="qcurve" smooth="yes"/>
      <point x="424" y="198" type="line"/>
      <point x="703" y="198" type="line"/>
      <point x="703" y="198"/>
      <point x="703" y="198"/>
      <point x="703" y="198" type="qcurve"/>
      <point x="703" y="264" type="line"/>
      <point x="985" y="214" type="line"/>
      <point x="985" y="178" type="line" smooth="yes"/>
      <point x="985" y="121"/>
      <point x="953" y="49"/>
      <point x="895" y="8"/>
      <point x="811" y="-7"/>
      <point x="759" y="-7" type="qcurve" smooth="yes"/>
    </contour>
  </outline>
</glyph>
<glyph name="uni031B.case" format="2">
  <anchor x="0" y="1024" name="_horn"/>
  <outline>
    <contour>
      <point x="0" y="709" type="line"/>
      <point x="108" y="709"/>
      <point x="274" y="735"/>
      <point x="399" y="784"/>
      <point x="485" y="857"/>
      <point x="538" y="952"/>
      <point x="562" y="1068"/>
      <point x="562" y="1136" type="qcurve" smooth="yes"/>
      <point x="562" y="1196"/>
      <point x="546" y="1327"/>
      <point x="533" y="1400" type="qcurve"/>
      <point x="102" y="1320" type="line"/>
      <point x="109" y="1278"/>
      <point x="116" y="1207"/>
      <point x="116" y="1178" type="qcurve" smooth="yes"/>
      <point x="116" y="1140"/>
      <point x="103" y="1082"/>
      <point x="76" y="1043"/>
      <point x="32" y="1024"/>
      <point x="0" y="1024" type="qcurve"/>
    </contour>
  </outline>
</glyph>
<glyph name="uni0493.sc" format="2">
  <advance width="1402"/>
  <outline>
    <contour>
      <point x="290" y="0" type="line"/>
      <point x="290" y="276" type="line"/>
      <point x="180" y="276" type="line"/>
      <point x="180" y="546" type="line"/>
      <point x="290" y="546" type="line"/>
      <point x="290" y="1086" type="line"/>
      <point x="1352" y="1086" type="line"/>
      <point x="1352" y="646" type="line"/>
      <point x="821" y="646" type="line"/>
      <point x="821" y="546" type="line"/>
      <point x="1087" y="546" type="line"/>
      <point x="1087" y="276" type="line"/>
      <point x="821" y="276" type="line"/>
      <point x="821" y="0" type="line"/>
    </contour>
  </outline>
  <guideline angle="90" color="1,0,0,1" x="1087" y="0"/>
</glyph>
<glyph name="uni20B2.alt" format="2">
  <advance width="1964" height="1448"/>
  <anchor x="988" y="1550" name="top"/>
  <anchor x="988" y="-150" name="bottom"/>
  <outline>
    <contour>
      <point x="794" y="-165" type="line"/>
      <point x="1168" y="-165" type="line"/>
      <point x="1168" y="20" type="line"/>
      <point x="1402" y="20" type="line" smooth="yes"/>
      <point x="1501" y="20"/>
      <point x="1655" y="51"/>
      <point x="1761" y="129"/>
      <point x="1816" y="263"/>
      <point x="1816" y="366" type="qcurve" smooth="yes"/>
      <point x="1816" y="864" type="line"/>
      <point x="988" y="864" type="line"/>
      <point x="988" y="494" type="line"/>
      <point x="1244" y="494" type="line"/>
      <point x="1244" y="424" type="line"/>
      <point x="1244" y="424"/>
      <point x="1244" y="424"/>
      <point x="1244" y="424"/>
      <point x="1244" y="424"/>
      <point x="1244" y="424" type="qcurve"/>
      <point x="730" y="424" type="line"/>
      <point x="730" y="424"/>
      <point x="730" y="424"/>
      <point x="730" y="424"/>
      <point x="730" y="424"/>
      <point x="730" y="424" type="qcurve"/>
      <point x="730" y="976" type="line"/>
      <point x="730" y="976"/>
      <point x="730" y="976"/>
      <point x="730" y="976"/>
      <point x="730" y="976"/>
      <point x="730" y="976" type="qcurve"/>
      <point x="1238" y="976" type="line"/>
      <point x="1238" y="976"/>
      <point x="1238" y="976"/>
      <point x="1238" y="976"/>
      <point x="1238" y="976"/>
      <point x="1238" y="976" type="qcurve"/>
      <point x="1238" y="906" type="line"/>
      <point x="1810" y="1012" type="line"/>
      <point x="1810" y="1046" type="line" smooth="yes"/>
      <point x="1810" y="1147"/>
      <point x="1752" y="1276"/>
      <point x="1644" y="1351"/>
      <point x="1491" y="1380"/>
      <point x="1396" y="1380" type="qcurve" smooth="yes"/>
      <point x="1168" y="1380" type="line"/>
      <point x="1168" y="1564" type="line"/>
      <point x="794" y="1564" type="line"/>
      <point x="794" y="1380" type="line"/>
      <point x="570" y="1380" type="line" smooth="yes"/>
      <point x="476" y="1380"/>
      <point x="323" y="1351"/>
      <point x="216" y="1276"/>
      <point x="158" y="1147"/>
      <point x="158" y="1046" type="qcurve" smooth="yes"/>
      <point x="158" y="366" type="line" smooth="yes"/>
      <point x="158" y="263"/>
      <point x="213" y="129"/>
      <point x="318" y="51"/>
      <point x="471" y="20"/>
      <point x="570" y="20" type="qcurve" smooth="yes"/>
      <point x="794" y="20" type="line"/>
    </contour>
  </outline>
</glyph>
<glyph name="uni20B5.alt" format="2">
  <advance width="1894" height="1448"/>
  <outline>
    <contour>
      <point x="158" y="352" type="line" smooth="yes"/>
      <point x="158" y="249"/>
      <point x="213" y="115"/>
      <point x="318" y="37"/>
      <point x="471" y="6"/>
      <point x="570" y="6" type="qcurve" smooth="yes"/>
      <point x="780" y="6" type="line"/>
      <point x="780" y="-164" type="line"/>
      <point x="1154" y="-164" type="line"/>
      <point x="1154" y="6" type="line"/>
      <point x="1362" y="6" type="line" smooth="yes"/>
      <point x="1461" y="6"/>
      <point x="1615" y="37"/>
      <point x="1721" y="115"/>
      <point x="1776" y="249"/>
      <point x="1776" y="352" type="qcurve" smooth="yes"/>
      <point x="1776" y="514" type="line"/>
      <point x="1204" y="626" type="line"/>
      <point x="1204" y="470" type="line"/>
      <point x="1204" y="470"/>
      <point x="1204" y="470"/>
      <point x="1204" y="470"/>
      <point x="1204" y="470"/>
      <point x="1204" y="470" type="qcurve"/>
      <point x="730" y="470" type="line"/>
      <point x="730" y="470"/>
      <point x="730" y="470"/>
      <point x="730" y="470"/>
      <point x="730" y="470"/>
      <point x="730" y="470" type="qcurve"/>
      <point x="730" y="930" type="line"/>
      <point x="730" y="930"/>
      <point x="730" y="930"/>
      <point x="730" y="930"/>
      <point x="730" y="930"/>
      <point x="730" y="930" type="qcurve"/>
      <point x="1198" y="930" type="line"/>
      <point x="1198" y="930"/>
      <point x="1198" y="930"/>
      <point x="1198" y="930"/>
      <point x="1198" y="930"/>
      <point x="1198" y="930" type="qcurve"/>
      <point x="1198" y="800" type="line"/>
      <point x="1770" y="906" type="line"/>
      <point x="1770" y="1060" type="line" smooth="yes"/>
      <point x="1770" y="1161"/>
      <point x="1712" y="1290"/>
      <point x="1604" y="1365"/>
      <point x="1451" y="1394"/>
      <point x="1356" y="1394" type="qcurve" smooth="yes"/>
      <point x="1154" y="1394" type="line"/>
      <point x="1154" y="1564" type="line"/>
      <point x="780" y="1564" type="line"/>
      <point x="780" y="1394" type="line"/>
      <point x="570" y="1394" type="line" smooth="yes"/>
      <point x="476" y="1394"/>
      <point x="323" y="1365"/>
      <point x="216" y="1290"/>
      <point x="158" y="1161"/>
      <point x="158" y="1060" type="qcurve" smooth="yes"/>
    </contour>
  </outline>
</glyph>
<glyph name="zero.dnom" format="2">
  <advance width="1140" height="1448"/>
  <outline>
    <contour>
      <point x="374" y="-8" type="line"/>
      <point x="764" y="-8" type="line" smooth="yes"/>
      <point x="819" y="-8"/>
      <point x="905" y="9"/>
      <point x="965" y="51"/>
      <point x="996" y="124"/>
      <point x="996" y="181" type="qcurve" smooth="yes"/>
      <point x="996" y="610" type="line" smooth="yes"/>
      <point x="996" y="665"/>
      <point x="963" y="735"/>
      <point x="902" y="776"/>
      <point x="817" y="792"/>
      <point x="764" y="792" type="qcurve" smooth="yes"/>
      <point x="374" y="792" type="line" smooth="yes"/>
      <point x="322" y="792"/>
      <point x="237" y="776"/>
      <point x="177" y="735"/>
      <point x="144" y="665"/>
      <point x="144" y="610" type="qcurve" smooth="yes"/>
      <point x="144" y="181" type="line" smooth="yes"/>
      <point x="144" y="125"/>
      <point x="175" y="52"/>
      <point x="233" y="9"/>
      <point x="319" y="-8"/>
      <point x="374" y="-8" type="qcurve"/>
    </contour>
    <contour>
      <point x="438" y="244" type="line"/>
      <point x="438" y="244"/>
      <point x="438" y="244"/>
      <point x="438" y="244" type="qcurve"/>
      <point x="438" y="540" type="line"/>
      <point x="438" y="540"/>
      <point x="438" y="540"/>
      <point x="438" y="540" type="qcurve"/>
      <point x="702" y="540" type="line"/>
      <point x="702" y="540"/>
      <point x="702" y="540"/>
      <point x="702" y="540" type="qcurve"/>
      <point x="702" y="244" type="line"/>
      <point x="702" y="244"/>
      <point x="702" y="244"/>
      <point x="702" y="244" type="qcurve"/>
    </contour>
  </outline>
</glyph>
